/* XPM */
static char *tmp_rsz[] = {
/* columns rows colors chars-per-pixel */
"15 15 2 1 ",
"  c None",
". c #B8BB26",
/* pixels */
"     ....      ",
"     .  ..     ",
"   ...  ....   ",
"  ..      ..   ",
"  ..       .   ",
"  ..       .   ",
"  ..       .   ",
"  ..       .   ",
"  ..........   ",
"   .........   ",
"   .........   ",
"   .........   ",
"   .........   ",
"   .........   ",
"   .........   "
};
