/* XPM */
static char *haskell_resized[] = {
/* columns rows colors chars-per-pixel */
"40 17 5 1 ",
"  c None",
". c #453B61",
"X c #5F5286",
"o c #8D508A",
"O c #8E508A",
/* pixels */
"    .......   XXXXXXX                   ",
"     .......  XXXXXXX                   ",
"     .......   XXXXXXX                  ",
"      .......   XXXXXXX  OOOOOOOOOOOOOOO",
"       .......  XXXXXXX   OOOOOOOOOOOOOO",
"       .......   XXXXXXX  OOOOOOOOOOOOOO",
"        .......  XXXXXXXX  OOOOOOOOOOOOO",
"         .......  XXXXXXX               ",
"         .......   XXXXXXX              ",
"         .......  XXXXXXXXX             ",
"        .......   XXXXXXXXX   OOOOOOOOOO",
"        .......  XXXXXXXXXXX  OOOOOOOOOO",
"       .......  XXXXXXXXXXXXX  OOOOOOOOO",
"      .......   XXXXXXXXXXXXX   OOOOOOOO",
"      .......  XXXXXXX XXXXXXX   OOOOOOO",
"     .......  XXXXXXX  XXXXXXX          ",
"    .......   XXXXXXX   XXXXXXX         "
};
