/* XPM */
static char *tmp_rsz[] = {
/* columns rows colors chars-per-pixel */
"15 15 4 1 ",
"  c None",
". c #B8BB26",
"X c #B8BB27",
"o c #B9BB27",
/* pixels */
"               ",
"       .o      ",
"      ...      ",
"     ....      ",
"    .....      ",
" ........  . . ",
" .......o      ",
" ........ .    ",
" ........      ",
" ........  . . ",
"    .....      ",
"     ....      ",
"      ...      ",
"       ..      ",
"               "
};
