/* XPM */
static char *edved_resize[] = {
/* columns rows colors chars-per-pixel */
"20 19 188 2 ",
"   c #1D1D15",
".  c #1C1D19",
"X  c #211E1A",
"o  c #1F201B",
"O  c #25231C",
"+  c #2A261D",
"@  c #2D291D",
"#  c #312B1E",
"$  c #252522",
"%  c #282722",
"&  c #272823",
"*  c #2D2B24",
"=  c #2C2E2B",
"-  c #322C24",
";  c #382F23",
":  c #332F2A",
">  c #353027",
",  c #35332B",
"<  c #3B352D",
"1  c #3F3C2F",
"2  c #2E3336",
"3  c #333535",
"4  c #373835",
"5  c #3B3833",
"6  c #373D3D",
"7  c #393E3D",
"8  c #403726",
"9  c #423926",
"0  c #423629",
"q  c #433D34",
"w  c #403F38",
"e  c #50432B",
"r  c #454235",
"t  c #4D4436",
"y  c #46453B",
"u  c #4D493D",
"i  c #4C453C",
"p  c #564931",
"a  c #57523D",
"s  c #5D523E",
"d  c #373F40",
"f  c #383D41",
"g  c #3D4343",
"h  c #3D4548",
"j  c #4D4942",
"k  c #41494D",
"l  c #454644",
"z  c #524D41",
"x  c #565345",
"c  c #5B5344",
"v  c #53544E",
"b  c #5D594E",
"n  c #484F50",
"m  c #475154",
"M  c #4B5659",
"N  c #4F595B",
"B  c #515551",
"V  c #515A5E",
"C  c #5A5E5B",
"Z  c #635D4D",
"A  c #6F674E",
"S  c #78684A",
"D  c #72644A",
"F  c #656455",
"G  c #6A6458",
"H  c #6D6656",
"J  c #7B6F57",
"K  c #746B54",
"L  c #697158",
"P  c #7F7257",
"I  c #79715D",
"U  c #75745E",
"Y  c #515D63",
"T  c #566369",
"R  c #586263",
"E  c #686B60",
"W  c #666D6C",
"Q  c #786F60",
"!  c #736C61",
"~  c #6F7562",
"^  c #66706F",
"/  c #747362",
"(  c #797561",
")  c #767C64",
"_  c #7B7B64",
"`  c #73746A",
"'  c #777F6A",
"]  c #797B6A",
"[  c #626F73",
"{  c #657073",
"}  c #6E7672",
"|  c #747672",
" . c #767E70",
".. c #787A74",
"X. c #7A7D7B",
"o. c #816F4E",
"O. c #82745D",
"+. c #8C7A5C",
"@. c #827662",
"#. c #827A67",
"$. c #827B6A",
"%. c #8F7F68",
"&. c #8D7E63",
"*. c #817B70",
"=. c #79825F",
"-. c #7C8466",
";. c #7C846D",
":. c #7E896C",
">. c #75896D",
",. c #7C8B74",
"<. c #7E847A",
"1. c #7F8F78",
"2. c #7E8571",
"3. c #7E9070",
"4. c #81806A",
"5. c #8B836A",
"6. c #828D6D",
"7. c #83956F",
"8. c #818677",
"9. c #8F8570",
"0. c #86847E",
"q. c #858B7B",
"w. c #8C887E",
"e. c #8E8C75",
"r. c #948C75",
"t. c #968C7A",
"y. c #928476",
"u. c #829272",
"i. c #869A76",
"p. c #85957A",
"a. c #879C78",
"s. c #8B927E",
"d. c #929175",
"f. c #999275",
"g. c #96957E",
"h. c #9C927B",
"j. c #9F9B7D",
"k. c #A39C78",
"l. c #A6A07E",
"z. c #767E80",
"x. c #7E8080",
"c. c #888B81",
"v. c #8C9483",
"b. c #8C9789",
"n. c #8E988D",
"m. c #859284",
"M. c #909682",
"N. c #9C9280",
"B. c #999A84",
"V. c #909388",
"C. c #929C8C",
"Z. c #9E9F8B",
"A. c #969E91",
"S. c #9B9E93",
"D. c #A39682",
"F. c #A49A84",
"G. c #A99E80",
"H. c #A39B8A",
"J. c #9BA383",
"K. c #9CA986",
"L. c #9AA58D",
"P. c #94A481",
"I. c #9FB18F",
"U. c #9FA394",
"Y. c #ADA285",
"T. c #A2A38D",
"R. c #ABA38C",
"E. c #A7A98E",
"W. c #A6A786",
"Q. c #B5A88B",
"!. c #BCB98E",
"~. c #A1A096",
"^. c #A6AC90",
"/. c #A0A49A",
"(. c #A1AA9A",
"). c #A9AD9F",
"_. c #B2A791",
"`. c #B1AD9A",
"'. c #B3AA92",
"]. c #ABB89B",
"[. c #BCB292",
"{. c #B1B79A",
"}. c #B6B897",
"|. c #A5ABA2",
" X c #A9AEA4",
".X c #B3BEA0",
"XX c #B0BAA8",
"oX c #BCB4A2",
/* pixels */
"C.1.a.A.:.L 2.q.) ] / ;.R.H.c.C.>.-.6.-.",
"U.p.u.n.-.5 F L.H.G r | 0.*.` c.-.6.6.-.",
"n.,.>.b./ @ Z _.Q.s , ..x.W | 8.:.3.a.u.",
"m.,.1.A.$.J H.oX`.h.#.| z.| C  .3.u.a.P.",
"q.m.b./.t.r.N.H.t.] 5.` [ { Y | L.J.J..X",
"v.U./.|.F.&.@.D.y.c A E Y T Y W XX.X{.{.",
"q.V./. XF.+.O.h.*.u x v m N M N S.E.J.E.",
"q.q.q.U.@.o.+.P v r , 6 g N h h 8.E.B.^.",
"C.v.V.w.t e S O.c , O = 2 m d 2 R s.L.K.",
" X).).G # + 9 p 9 .   O = l 7 3 v <.C.I.",
"B.|.~.q O O O X X + + @ = r U y.b <.v.].",
"B.T.I O X O * *   # # > , H N.N._ { ^ ).",
"W.g.i . O % y L + O ; > q O.5.I x M V q.",
"j.$.: X O , ~ U > . + - q c D z * 6 h C ",
"f.( : . O w -.U q   . * q * # # O , 2 l ",
"Y.$.4 $ + u r.5.t X . - : O - + # < 4 = ",
"G.$.j 3 & x r.d.J 0 X < * + z 5 X > y w ",
"k.h.*.( G $.r.t.k.r.y.t.z z F.( , t I _.",
").Y.f.r.5.h.F.W.G.Q.[.!.k.k.}.}.W.}.[.[."
};
