/* XPM */
static char *haskell_20[] = {
/* columns rows colors chars-per-pixel */
"20 9 9 1 ",
"  c None",
". c #443A60",
"X c #453B60",
"o c #453B61",
"O c #5E5286",
"+ c #5F5286",
"@ c #5F5287",
"# c #8E508A",
"$ c #8F508A",
/* pixels */
"  oooo ++++         ",
"   ooo  +++         ",
"   oooo ++++ #######",
"    oooo +++  ######",
"     ooo ++++       ",
"    oooo +++++ #####",
"    ooo ++++++ #####",
"   ooo  +++++++ ####",
"  oooo ++++ +++     "
};
