/* XPM */
static char *nix[] = {
/* columns rows colors chars-per-pixel */
"18 16 71 1 ",
"  c None",
". c #4869AD",
"X c #4A6BAE",
"o c #4B6CAE",
"O c #4B6CB2",
"+ c #4B6DB3",
"@ c #4C6EB1",
"# c #4C6EB4",
"$ c #4C6EB5",
"% c #4C6FB6",
"& c #4D6FB6",
"* c #4D70B7",
"= c #4D70B8",
"- c #4E71B8",
"; c #4E72BA",
": c #4E72BB",
"> c #4F72BB",
", c #4F72BC",
"< c #4F73BD",
"1 c #5074B5",
"2 c #5175BD",
"3 c #5074BE",
"4 c #5074BF",
"5 c #5075BF",
"6 c #5479BF",
"7 c #5175C0",
"8 c #5175C1",
"9 c #5176C1",
"0 c #5176C2",
"q c #5176C3",
"w c #5277C2",
"e c #5276C3",
"r c #5277C3",
"t c #5479C0",
"y c #567CC3",
"u c #587FC6",
"i c #5D86BE",
"p c #5E88C7",
"a c #6089CA",
"s c #6795C9",
"d c #6794CE",
"f c #6C9DD0",
"g c #77A9D9",
"h c #76ABD9",
"j c #76ADDB",
"k c #76AEDC",
"l c #78AADA",
"z c #78AFDC",
"x c #7BAEDC",
"c c #7CAFDC",
"v c #7CB0DD",
"b c #7CB3DE",
"n c #7CB3DF",
"m c #7EB3DE",
"M c #7EB3DF",
"N c #7EB4DF",
"B c #7EB4E0",
"V c #7EB5E0",
"C c #7EB6E0",
"Z c #7EB6E1",
"A c #7EB7E1",
"S c #7EB7E2",
"D c #7DB8E3",
"F c #7EB8E2",
"G c #7EB8E3",
"H c #7EB9E3",
"J c #7DBAE3",
"K c #7EBAE3",
"L c #7DB9E4",
"P c #7EBAE4",
"I c #7EBBE4",
/* pixels */
"    rr  PP  PG    ",
"    r4   PPGGG    ",
"     4-  kGGS     ",
"   rr4-*+1xSS     ",
"  rrry6-+.sSN  r  ",
"     xl    mm rr  ",
"    Nm      carr  ",
"GGSSSS      d444rr",
"PGGGmi      %--<4r",
"  PPf.      +%    ",
"  GP +%    o@     ",
"  P  %%pmmmhjGPP  ",
"     --thmSSGPP   ",
"     <4ru  SG     ",
"    4rrrr   GG    ",
"    rr  rr  GG    "
};
